# xmcd
#
# Track frame offsets: 
#        150
#        10572
#        22225
#        34018
#        44653
#        56116
#        67834
#        79321
#        90814
#        101368
#        112969
#        125030
#        135050
#        145433
#
# Disc length: 2082 seconds
#
# Revision: 0
# Processed by: cddbd v1.5.2PL0 Copyright (c) Steve Scherf et al.
# Submitted via: ExactAudioCopyFreeDBPlugin 1.0
#
DISCID=b108200e
DTITLE=Tony Booth - The Essential Tony Booth
DYEAR=1900
DGENRE=Country
TTITLE0=Cinderella
TTITLE1=Out Of Ways To Try
TTITLE2=Happy Hour
TTITLE3=Lonesome 7-7203
TTITLE4=Close Up The Honky Tonks
TTITLE5=Congratulations, You're Absolutely Right
TTITLE6=What A Liar I Am
TTITLE7=Under Your Spell Again
TTITLE8=Old Faithful
TTITLE9=Down At The Corner Bar
TTITLE10=Colors I'm Gonna Paint
TTITLE11=The Devil Made Me Do That
TTITLE12=The Key's In The Mailbox
TTITLE13=Would You Settle For Roses
EXTD=
EXTT0=
EXTT1=
EXTT2=
EXTT3=
EXTT4=
EXTT5=
EXTT6=
EXTT7=
EXTT8=
EXTT9=
EXTT10=
EXTT11=
EXTT12=
EXTT13=
PLAYORDER=
